<?xml version="1.0" encoding="UTF-8"?>
<svg xmlns="http://www.w3.org/2000/svg" xmlns:xlink="http://www.w3.org/1999/xlink" viewBox="0 0 566 320">
  <defs>
    <style>
      .cls-1, .cls-2, .cls-3, .cls-4, .cls-5 {
        fill: none;
      }

      .cls-2 {
        clip-path: url(#clippath-1);
      }

      .cls-3, .cls-4 {
        stroke-width: 8px;
      }

      .cls-3, .cls-6 {
        stroke: #fff;
        stroke-linejoin: round;
      }

      .cls-7 {
        fill: #e2e2e2;
      }

      .cls-8 {
        fill: #7c7c7c;
      }

      .cls-9, .cls-6 {
        fill: #363636;
      }

      .cls-4 {
        stroke: #363636;
        stroke-miterlimit: 10;
      }

      .cls-5 {
        clip-path: url(#clippath);
      }

      .cls-6 {
        stroke-width: 4px;
      }
    </style>
    <clipPath id="clippath">
      <circle class="cls-1" cx="-196.5" cy="149.5" r="151.5"/>
    </clipPath>
    <clipPath id="clippath-1">
      <circle class="cls-1" cx="158.73" cy="159" r="151.27"/>
    </clipPath>
  </defs>
  <g id="Capa_7" data-name="Capa 7">
    <g class="cls-5">
      <g id="ESP5825">
        <path class="cls-7" d="m2.17,109.86l.5.4.9,1.6.6,1.7.3.5.4.3.4.2.9.2.5.3.2.5-.2.4-.2,1.5-.2.5-.4.9-.2.5-.2.2-.3.9.1.7-.2.5-.3.2h-.5l-.3.2-.1.5.1.5.2.5.1.4v.7l.2.4.5.6.3.4.2.7.4,1.5.2,2.5v1.2l-.1.6-.2.7v1.1l-.1,1.1v.4l-.4,1.1-.5.8-.1.3-.4,1.9-.1.4-.2,1.2.2,1-.1.6-.2,1.3-.1.6-.3.6-.4.3v.3l-.7,2.4-.6,1.4.1.8-.2.7-.4.5-.5.2-.6.6-.3.6-.5.4-.3.1-.4.3-.4.3-.4.7v.4l.6.6.4.2.3.7.1,2-.2.4-.6.7-1,.6-.4.7-.3.4-.4.3-.8.2-.4.1-.4.5-.6,1-.5.9-.3.5-.5.3-1.5.3-.6.3-.5.6-.1.4-.3.2-.3.4-.6,1-1,.9-.7,1,.1.9.6,1.5.2,1.3.2.5.2.3.4.2,1.3.2.5-.1.4.1.4.1.2.5v.9l.2.5.2.4.1.5-.1.4-.2.3-.9,1.1-.2.3-.4.8-.4.3-1.3.4-.5.4-.1.4.1,1.1-.1,1.2-.4,1.6-4.4-1.3-.9,1.4-1.6.6-.9-.7-1.5,1.1-1,2.1-3.9-.5-.3-.2-.5-.7-.7-.5-.8.1-1.6.5-1.5-6-.6-1.3-1.6-1.9-.6-2.4-.4-.7-.5-.6-.5-.2h-.5l-1.3,1.1h-.3l-.6-.1-2.5-2.7-1.3-.5-.3-.3-1-2.5-.3-.3-4.8-3.1-.4-.5-.2-.6-1-5.1-.6-.9-.7-.7-2.4-1.3-2-3.4-.7-.6-4.8-.1-3.4-2.3-.5-.9v-.9l.4-2,.4-.8.5-.5.4-.1.3.1.4.1.3.2.7,1.1.3.1.6-.3.5-.6.4-.9.1-.9-.5-9.4.3-.9.7-1,.1-.5v-.6l-.4-1.9v-2.1l-.2-.6-.4-.4h-1.1l-.1.2v.4l.4,1.7v.5l-1.4,3.7-.4.5-.4.1-.3-.1-.6-.4-.4-.1-.4.1-.5.2-.3.3-.3,1.1-.3.3h-.6l-.5-.2-.3-.5.1-.6,3.7-5.8.1-.7v-.5l-.3-1.1-2.5-1.6-.1-.4.5-1.1v-.8l-.3-1.4-.4-7.1-.8-2,.1-.6.2-.2,1-.3.4-.3.2-.6-.1-.6-1.2-1.1-.1-.5.4-1.6.3-.8.3-.2.5-.3.5-.4.5-1,.2-1.8v-1l.1-.5.1-.5,1.2-1.6.2-.4v-.4l.1-.4.3-.5,1.6-.9h1.1l.2.5v.4l-.2.6.2.6.5.4.4.1.5-.1.4.1,1.5.9.8.7,1.7,2.3.1.3-.1.4.3.2h.9l.3.4-.1.8.4.2h.4l.7-.5.4-.2.1-1.4h1.1l2.4,1.2,1.4-.1,1-.7,2.2-1.7.4.4.3-.1.3-.5.2-.6.7.7,2.7,1.6.5,1.1,1.2.2,1.3-.4.8-.3-.1,1,.3,1.1.5.9.7.6.3.3.2.8.5.2.5.2.3.3.5.5,1.7.7,1.6-.1,3.4-1.3,2.7-.4.8-.6.8-.1,2.3.7.7.3,1,1.7.7.8.6-.1,1.3-1.7.8-.8.8-.3,1.2,1,.1.2v.5l.2.2.9.2h.9l1.7-.5.7.3,5.5-.1,1.6.2.6-.2.3-.5h0Z"/>
        <path class="cls-8" d="m-22.53,191.16s-.08,0-.13,0l-3.9-.5c-.15-.02-.3-.07-.43-.16l-.3-.2c-.1-.07-.19-.15-.26-.25l-.4-.56-.25-.18-.32.04-1.51.47c-.26.08-.55.05-.79-.08-.24-.13-.41-.36-.48-.63l-1.48-5.91-.5-1.09-1.51-1.8c-.1-.12-.17-.25-.21-.4l-.57-2.27-.29-.5-.33-.36-1,.85c-.18.15-.41.24-.65.24h-.3c-.06,0-.11,0-.16-.01l-.6-.1c-.22-.04-.42-.14-.57-.31l-2.34-2.53-1.08-.42c-.13-.05-.25-.13-.35-.23l-.3-.3c-.1-.1-.17-.21-.22-.34l-1-2.39-4.71-3.04c-.09-.06-.17-.13-.24-.21l-.4-.5c-.07-.09-.13-.2-.17-.31l-.2-.6s-.02-.08-.03-.12l-.96-4.9-.43-.65-.53-.53-2.27-1.23c-.16-.09-.29-.22-.39-.37l-1.92-3.26-.3-.26-4.44-.09c-.19,0-.38-.06-.54-.17l-3.4-2.3c-.13-.09-.24-.21-.31-.34l-.5-.9c-.08-.15-.13-.32-.13-.49v-.9c0-.07,0-.13.02-.2l.4-2c.02-.09.05-.17.09-.25l.4-.8c.05-.1.11-.18.19-.26l.5-.5c.13-.13.29-.22.46-.26l.4-.1c.18-.05.38-.04.56.02l.63.18c.11.03.22.07.31.14l.3.2c.12.08.22.18.29.3l.28.44.12-.14.28-.63.07-.66-.5-9.32c0-.13.01-.25.05-.37l.3-.9c.03-.09.07-.18.13-.26l.58-.83.04-.2v-.4l-.22-1.02-1.05,2.77c-.04.1-.09.19-.15.27l-.4.5c-.14.17-.33.29-.54.35l-.4.1c-.18.05-.38.04-.56-.02l-.3-.1c-.08-.03-.16-.07-.24-.12l-.45-.3-.31.11-.22.82c-.05.17-.13.32-.26.44l-.3.3c-.19.19-.44.29-.71.29h-.6c-.13,0-.25-.02-.37-.07l-.5-.2c-.2-.08-.37-.23-.49-.41l-.3-.5c-.12-.2-.17-.44-.13-.68l.1-.6c.02-.13.07-.26.14-.37l3.58-5.62.06-.71-.16-.6-2.18-1.39c-.21-.14-.37-.35-.43-.6l-.1-.4c-.05-.22-.03-.45.06-.66l.41-.9v-.48l-.28-1.3c-.01-.05-.02-.1-.02-.15l-.39-6.94-.74-1.85c-.07-.17-.09-.35-.06-.54l.1-.6c.03-.21.13-.39.28-.54l.2-.2c.12-.12.26-.2.42-.25l.84-.25.02-.07v-.02s-.95-.87-.95-.87c-.16-.14-.26-.33-.3-.54l-.1-.5c-.03-.15-.03-.29.01-.44l.4-1.6s.02-.07.03-.11l.3-.8c.07-.2.21-.36.38-.48l1.06-.71.32-.64.17-1.57v-.94c0-.07,0-.13.02-.2l.2-1c.03-.15.09-.29.18-.4l1.2-1.64v-.16c0-.08,0-.16.03-.24l.1-.4c.02-.1.06-.19.11-.27l.3-.5c.09-.15.22-.27.37-.36l1.6-.9c.15-.08.32-.13.49-.13h1.1c.41,0,.78.25.93.63l.2.5c.05.12.07.24.07.37v.4c0,.11-.02.21-.05.32l-.09.28h0s.09.07.09.07l.26-.05c.14-.03.29-.03.44.01l.4.1c.1.02.19.06.27.11l1.5.9c.05.03.1.07.14.1l.8.7c.05.05.1.1.15.16l1.7,2.3c.06.08.11.18.14.28l.07.22h.18c.31,0,.61.15.8.4l.3.4s.04.05.06.08l.05-.65c.04-.52.47-.93,1-.93h1.1c.16,0,.31.04.45.11l2.16,1.08.85-.06.77-.54,2.16-1.67c.24-.19.54-.25.82-.19l.05-.14c.11-.33.38-.58.72-.66.34-.08.69.02.94.27l.61.61,2.59,1.54c.18.1.32.26.4.45l.28.61.44.07,1.82-.61c.32-.12.69-.07.96.14.27.21.42.55.39.89l-.08.82.22.8.35.64.92.84c.13.13.22.29.26.46l.1.31.5.2c.13.05.24.13.34.22l.66.66,1.3.54,1.22-.08,3.26-1.25c.07-.03.14-.04.21-.06l2.45-.36.6-.45c.14-.1.3-.17.48-.19l.8-.1c.14-.02.28,0,.42.04l2.3.7s.07.02.1.04l.7.3c.2.08.36.23.47.41l1.07,1.75.88-1.15s.06-.07.09-.1l.8-.8c.1-.1.22-.18.36-.23l.8-.3c.34-.13.71-.06.99.17l1.2,1c.11.09.19.2.26.32l.1.2c.05.09.08.19.09.3l.22.05h.65l1.56-.46c.22-.07.46-.05.68.04l.5.22,5.29-.1s.1,0,.14,0l1.37.17h.03s.11-.19.11-.19c.15-.25.4-.42.68-.47.29-.05.58.02.8.2l.5.4c.1.08.18.18.25.29l.9,1.6c.03.05.05.1.07.16l.57,1.6.15.25.38.23.78.17c.1.02.21.06.3.12l.5.3c.19.11.33.28.41.49l.2.5c.11.27.09.56-.03.82l-.13.25-.18,1.33c-.01.08-.03.16-.06.24l-.8,1.9c-.05.13-.13.24-.22.34l-.03.03-.15.45.07.47c.02.17,0,.35-.06.51l-.2.5c-.07.19-.21.35-.37.46l-.3.2c-.11.07-.24.12-.37.15l.14.35s.03.08.04.13l.1.4c.02.08.03.16.03.24l.04.55.76.95c.07.1.13.21.16.33l.6,2.22c.02.06.03.12.03.18l.2,2.5v1.28c0,.05,0,.11-.01.16l-.1.6s-.01.07-.02.11l-.16.73v.8l-.1,1.19v.31c0,.12-.02.23-.06.34l-.4,1.1c-.02.07-.05.13-.09.19l-.48.83-.65,3.22.16.82c.02.12.03.24,0,.36l-.4,2.5c-.02.1-.05.19-.09.28l-.3.6c-.07.14-.17.26-.29.35l-.02.02s-.01.04-.02.06l-.7,2.4s-.02.08-.04.11l-.49,1.15.07.53c.02.13,0,.27-.03.4l-.2.7c-.04.13-.1.25-.18.35l-.4.5c-.11.13-.25.24-.41.3l-.31.12-.34.34-.23.45c-.06.13-.16.24-.27.33l-.5.4c-.09.07-.2.13-.31.17l-.15.05-.5.38-.06.11.09.09.25.13c.21.11.38.28.47.5l.3.7c.05.11.07.23.08.34l.1,2c0,.17-.03.34-.1.5l-.2.4c-.04.07-.08.14-.13.2l-.6.7c-.07.08-.15.15-.24.21l-.78.47-.27.47s-.04.07-.07.1l-.3.4c-.06.08-.12.14-.2.2l-.4.3c-.11.08-.23.14-.36.17l-.87.22-.15.18-1.37,2.34c-.08.14-.2.26-.34.34l-.5.3c-.1.06-.21.1-.32.12l-1.37.27-.29.15-.22.26-.04.18c-.06.24-.21.45-.42.59l-.16.1-.17.22-.57.96c-.05.09-.11.16-.19.23l-.92.82-.42.6.04.39.55,1.37c.03.07.05.14.06.22l.18,1.19.14.3.97.15.33-.07c.15-.03.29-.03.44.01l.8.2c.31.08.57.3.69.6l.2.5c.05.12.07.24.07.37v.71l.29.65c.04.08.07.16.09.25l.1.5c.03.15.03.3-.01.44l-.1.4c-.03.11-.07.22-.14.31l-.2.3-1.06,1.34-.38.75c-.07.14-.17.26-.29.35l-.4.3c-.09.07-.2.12-.31.16l-1.18.39.08.86c0,.06,0,.12,0,.17l-.1,1.2c0,.05-.01.11-.03.16l-.4,1.6c-.07.26-.24.49-.47.63-.24.14-.52.17-.78.09l-3.68-1.09-.5.77c-.12.18-.29.32-.49.4l-1.6.6c-.32.12-.69.07-.96-.15l-.3-.24-.69.5-.89,1.87c-.17.35-.52.57-.9.57Zm-3.51-2.46l2.92.37.69-1.45c.07-.15.18-.28.31-.38l1.5-1.1c.36-.26.85-.26,1.21.02l.46.36.77-.29.72-1.12c.24-.37.7-.55,1.12-.42l3.4,1,.13-.51.09-1.03-.09-1.01c0-.11,0-.22.03-.33l.1-.4c.05-.21.17-.4.35-.54l.5-.4c.1-.08.21-.14.33-.17l1.21-.4.29-.59s.04-.07.06-.11l.2-.3,1.01-1.27-.03-.15-.37-.86c-.05-.12-.07-.24-.07-.37l-.02-.58-.28.06c-.11.02-.23.03-.35,0l-1.3-.2c-.1-.02-.2-.05-.29-.09l-.4-.2c-.16-.08-.29-.2-.39-.34l-.2-.3c-.04-.06-.07-.12-.1-.18l-.2-.5c-.03-.07-.05-.14-.06-.22l-.18-1.19-.56-1.39c-.03-.08-.06-.17-.06-.26l-.1-.9c-.03-.24.04-.48.17-.68l.7-1c.04-.06.09-.12.15-.17l.89-.8.52-.87s.04-.06.06-.09l.3-.4c.06-.08.14-.16.22-.22v-.03c.04-.15.11-.28.21-.4l.5-.6c.09-.11.2-.19.32-.25l.6-.3c.08-.04.16-.07.25-.09l1.33-.27.14-.08,1.27-2.19s.05-.08.08-.11l.4-.5c.14-.17.33-.29.54-.35l1-.25.12-.09.18-.24.37-.65c.08-.15.21-.27.35-.36l.86-.52.44-.54-.08-1.56-.08-.2-.07-.04c-.1-.05-.18-.11-.26-.19l-.6-.6c-.19-.19-.29-.44-.29-.71v-.4c0-.17.05-.34.13-.5l.4-.7c.07-.12.16-.22.27-.3l.8-.6c.09-.06.18-.12.29-.15l.13-.04.19-.15.2-.4c.05-.1.11-.18.19-.26l.6-.6c.1-.1.21-.17.34-.22l.26-.1.11-.14.09-.31-.07-.6c-.02-.18,0-.35.07-.52l.58-1.34.64-2.36c0-.31.15-.61.4-.8l.21-.16.13-.25.34-2.17-.16-.82c-.02-.12-.03-.24,0-.36l.32-1.68.39-1.86s.02-.07.03-.11l.1-.3c.03-.07.06-.15.1-.21l.44-.71.3-.84v-.22l.1-1.19v-1.01c0-.09,0-.19.03-.27l.18-.65.08-.46v-1.12l-.19-2.33-.52-1.92-.66-.81c-.05-.06-.09-.12-.13-.19l-.2-.4c-.07-.14-.11-.29-.11-.45v-.58l-.05-.21-.17-.44c-.02-.06-.04-.12-.05-.18l-.1-.5c-.03-.13-.03-.26,0-.39l.1-.5c.05-.26.21-.49.43-.64l.3-.2c.15-.1.32-.16.5-.17l-.04-.26c-.02-.15,0-.31.04-.46l.3-.9c.05-.15.13-.28.24-.39l.05-.05.68-1.59.18-1.38s.02-.1.03-.15l-.66-.15c-.08-.02-.16-.04-.23-.08l-.4-.2c-.05-.03-.1-.06-.15-.09l-.4-.3c-.1-.08-.19-.17-.26-.29l-.3-.5c-.03-.06-.06-.12-.09-.18l-.57-1.62-.53-.95-.54.18c-.14.05-.29.06-.44.04l-1.53-.19-5.43.1c-.13,0-.28-.02-.41-.08l-.37-.16-1.35.4c-.09.03-.19.04-.28.04h-.9c-.07,0-.15,0-.22-.02l-.9-.2c-.19-.04-.35-.13-.49-.27l-.2-.2c-.19-.19-.29-.44-.29-.71v-.15l-.49-.41-.05.02-.6.6-1.26,1.65c-.15.2-.38.34-.63.38l-.6.1c-.34.06-.69-.07-.92-.33l-.7-.8s-.08-.1-.11-.15l-.83-1.42-.35-.15-2.04-.62-.32.04-.59.44c-.13.1-.29.17-.45.19l-2.59.38-3.3,1.26c-.09.04-.19.06-.3.06l-1.6.1c-.15.01-.3-.02-.44-.07l-1.7-.7c-.12-.05-.23-.12-.33-.22l-.65-.66-.81-.32c-.3-.12-.52-.37-.6-.69l-.13-.53-.1-.1-.64-.55c-.09-.08-.17-.17-.22-.27l-.5-.9c-.04-.07-.07-.15-.09-.22l-.26-.95-.78.24c-.15.05-.31.06-.46.03l-1.2-.2c-.33-.05-.61-.27-.75-.57l-.37-.81-2.28-1.35c-.12.19-.31.33-.52.4l-.3.1c-.25.09-.53.06-.76-.05l-1.55,1.19-1.04.73c-.15.1-.32.17-.5.18l-1.4.1c-.18,0-.36-.02-.52-.1l-2.12-1.06-.03.44c-.03.35-.23.67-.55.82l-.33.16-.64.45c-.17.12-.37.19-.58.19h-.4c-.16,0-.31-.04-.45-.11l-.4-.2c-.38-.19-.6-.6-.55-1.02v-.08s-.11,0-.11,0c-.2,0-.39-.06-.55-.17l-.3-.2c-.35-.23-.52-.66-.42-1.07l.02-.06-1.49-2.01-.65-.57-1.33-.79-.28.06c-.14.03-.29.03-.44-.01l-.4-.1c-.14-.03-.27-.1-.38-.19l-.5-.4c-.15-.12-.26-.28-.32-.46l-.2-.6c-.07-.21-.07-.43,0-.63l.05-.15-1.08.61-.12.28v.28c0,.16-.04.31-.11.45l-.2.4c-.03.05-.06.1-.09.15l-1.06,1.42-.14.68v.9s0,.07,0,.11l-.2,1.8c-.01.12-.05.23-.1.34l-.5,1c-.06.13-.16.24-.27.33l-.5.4s-.07.05-.11.08l-.49.29-.17.45-.33,1.3.94.87c.16.15.27.35.31.57l.1.6c.03.16.01.33-.04.48l-.2.6c-.06.19-.19.36-.35.48l-.4.3c-.09.07-.2.12-.31.16l-.51.15.65,1.62c.04.1.06.21.07.31l.4,7.02.28,1.32c.01.07.02.14.02.21v.8c0,.14-.03.28-.09.41l-.26.57,1.99,1.27c.21.13.36.34.43.58l.3,1.1c.02.09.04.17.04.26v.5s0,.09-.01.14l-.1.7c-.02.14-.07.28-.15.4l-2.44,3.82.22-.09s.08-.03.13-.04l.4-.1c.16-.04.33-.04.49,0l.4.1c.11.03.22.07.31.14l.28.19,1.26-3.34v-.2l-.37-1.59c-.02-.08-.03-.15-.03-.23v-.4c0-.16.04-.31.11-.45l.1-.2c.17-.34.52-.55.89-.55h1.1c.27,0,.52.11.71.29l.4.4c.11.11.19.24.24.39l.2.6c.03.1.05.21.05.32v2l.38,1.8c.01.07.02.14.02.21v.6c0,.07,0,.13-.02.2l-.1.5c-.03.14-.08.26-.16.38l-.62.88-.19.58.49,9.21c0,.05,0,.11,0,.16l-.1.9c-.01.1-.04.2-.08.3l-.4.9c-.04.08-.09.16-.15.23l-.5.6c-.09.11-.2.19-.32.25l-.6.3c-.24.12-.51.14-.76.05l-.3-.1c-.22-.07-.4-.22-.53-.41l-.58-.91-.23-.06-.13.13-.27.54-.35,1.77v.54l.26.46,2.96,2,4.5.09c.23,0,.45.09.63.24l.7.6c.08.07.16.16.21.25l1.86,3.16,2.16,1.17c.08.05.16.1.23.17l.7.7s.09.1.12.15l.6.9c.07.11.12.23.15.36l1.11,5.41.19.23,4.66,3.01c.06.04.11.08.16.13l.3.3c.1.1.17.21.22.34l.93,2.31,1.1.42c.14.05.27.14.38.25l2.32,2.46,1-.84c.18-.15.41-.24.65-.24h.5c.13,0,.25.02.37.07l.5.2c.15.06.29.16.4.29l.5.6s.07.09.1.14l.4.7c.05.08.08.17.1.25l.54,2.18,1.45,1.72c.06.07.11.14.14.23l.6,1.3c.03.06.05.12.06.18l1.24,4.97.59-.18c.06-.02.12-.03.17-.04l.8-.1c.25-.03.5.03.71.18l.7.5c.09.06.17.14.23.23l.37.52Z"/>
      </g>
    </g>
  </g>
  <g id="Capa_3" data-name="Capa 3">
    <g class="cls-2">
      <g id="ESP5810">
        <path class="cls-7" d="m336.21,24.39l2.82.47h1.88l1.88-.94,2.35.94,1.88,2.35,1.88,1.41,1.88.47,2.35-.47.47.94-.47,2.35-.94,2.82-1.88,3.76-1.88,1.88-2.35.94-1.41.47-.47,2.82.94.94,3.29,3.29,1.88,3.29,2.82.94,2.35-.94,1.88-2.35,1.41-.94h1.41l.94,2.35,1.41,4.23v3.29l-.47,1.41-2.35,1.41-2.35.47-1.41-1.88-2.35-1.41h-16.45l-10.34-4.7-14.1-3.29-12.69-5.64-5.64-4.23-5.17-5.64-.94-2.35.47-1.88,2.82-3.29,4.23-6.58,1.41-1.41,2.35-.47,13.16-.94,5.64.47,2.35.47,2.82,1.41,12.69,3.76h0Zm-41.36,37.13l-14.1,5.17-5.64-1.41-3.29-1.41-13.63-1.41-8.93.94-3.29,1.41-.47,1.88,2.35,3.76.47,1.88v1.88l-.94,2.35-2.82,3.29-.94,1.88-6.11,7.05-.47,1.88.94,1.41h1.88l1.41-.94h3.76l.94,1.41.47,1.41v2.35l-.47,2.82-1.88,3.29-.47,2.35.94,1.88,2.82,2.35,1.41,1.41.47,1.88.94,1.88.47,1.88v1.41l-1.88,6.11v6.11l.47,4.23v2.35l-3.29,5.64-1.41,1.41-3.76.94-2.35.94v1.41l1.88,3.29.47,1.88v4.7l.94,4.7.47,1.88.47,4.23-.47,6.11-2.35,8.46-1.41,2.35-2.35,2.35v1.41l7.05,10.81.47,2.35,1.41,3.29,4.7,3.76,1.88,3.29,1.88,3.76,2.35,3.29,2.82,1.88h7.52l3.29-.47,1.88-.47h1.88l1.41.47,2.35,3.76,1.41,3.76,1.41,9.4-4.7,1.41-6.58,15.51-.94,6.58-.94,2.35-1.88.47h-1.88l-1.41.94-.94,1.41-2.82,9.4-6.11-.47-6.11,1.41-20.21,25.38-4.7-9.4-1.41-1.41-5.64-2.35-1.88-2.35-3.29-4.23-3.76-.47-3.29,2.82v6.11l1.88,17.39-.94,1.88-7.99,5.64-7.05,1.88-.94,12.22-7.05.94-14.1,28.2-14.1-5.17-1.41.47-1.41,1.41-.47,2.35.47,4.23-6.58,3.29-10.34-1.88-5.17.94-5.17,2.82-1.41,1.41-2.35,5.17-1.41,1.41-4.7,2.35-1.41,2.35-.47,2.35v13.16l-8.46-.47-3.29-11.75-10.34.94v-.47l-11.28-13.16-19.27-9.87-2.35-7.05-7.99-6.11.94-15.04-.94-4.7-5.17-11.28,3.29-7.52.47-6.11-10.81-11.28v-11.28l7.52.47,11.75-4.7,1.41-1.41.94-1.88.47-2.35.47-5.64.94-1.41,13.16-3.29,2.82-2.35,1.41-3.29v-3.29l-.47-2.82-1.88-1.88-2.35-.47-18.8,9.87h-3.76l-.94-5.17,11.75-15.51.47-2.35-1.88-2.35-1.88-.94-19.27,3.29-.94-.94-3.76-5.17-3.76-18.8-17.39-1.88,2.82-13.16-9.87-9.4.94-3.76-8.93-43.71.94-.47-9.4.94-1.88-2.35-.94-4.23v-9.4l1.41-3.29,1.88-1.88,2.82-.94,12.22,1.41-.47-10.34-3.76-12.69-2.82-3.76-4.23-4.7-1.41-.94,4.23-1.88-2.35-7.99,4.23-3.76-.47-9.87-1.88-6.58.47-2.82,3.29-5.64.47.94,1.41,1.41,2.82,1.41,5.64-3.76,6.58-8.93,5.64-3.29,2.82-.94,2.82.94,3.29,3.29.94.47,1.88-.94,1.41-1.88,2.35-5.17,7.99-1.88,5.64-13.16,1.88-1.41,1.88-.47.47,2.35.47,7.99-.47,4.7,7.05,2.35,3.29-.94,4.23-.94,2.35-1.41,7.52-6.58,3.29-.94h7.52l1.88-1.41.94-1.41.47-3.76-2.35-4.7-.47-2.35.47-2.82-.47-2.35-.47-1.88-1.88-.94h-2.35l-2.35.94-3.29,4.7-1.41,1.41h-1.88l-1.41-1.41-.94-1.41v-2.35l-.94-3.29.47-1.41,1.41-.94.47-2.82,6.11-.47,6.11-3.76.94-2.35-.47-1.88-2.35-3.76-1.41-.94-1.88-.94-3.76,1.41-.94,1.41-1.88,3.76-1.41,1.41-5.17,3.29-3.76,1.41h-2.35l-1.88-.94-1.88-1.41-1.41-1.88-.94-1.88.47-4.23,4.7-13.63,1.88-3.29,1.88-1.41,1.88-.94,3.76-2.35,4.23-4.7,3.29-2.35,3.29-.94,1.88-.94,2.82-2.82.47-2.82v-5.17l1.41-.94,1.88-.47h2.35l5.64.47,1.88-.47,1.88-.94,3.29-2.82,3.76-2.35,2.35-1.88,3.29-3.29,5.17-7.05,4.23-4.23,2.82-1.88,2.35-.47,1.88.94,3.29,2.35,1.41.94,6.58.94,5.64,1.88,5.64,2.35,3.76.94h4.23l6.11.47,5.64-.47,12.69-4.7,17.86-11.28,3.76-1.41,2.82.94,3.29,3.29,4.7.94h7.05l4.7.47,1.88,1.88v2.82l-3.76,3.29-.94,1.88-1.41,4.7v2.35l1.41,1.88,3.76,1.41.94,1.88v3.76l-.94,5.17-.47,6.58-1.41,3.29-1.88,3.76.94.94,1.88.94,6.11,1.41,6.11.47,1.88.47,2.35-.94,3.76-7.99,3.76-1.88,1.88.47.94,1.41v3.29l1.41,1.41,3.76,1.41,1.88,1.88.47,1.41-1.41,4.23-.94,1.41-6.11.94h-2.35v2.35l2.82,3.76,2.82,1.88,6.11,1.88.94,1.88v1.88l-.94,2.82-.94.47-2.82.94h-1.88l-4.23,3.76-1.88.47h-4.23l-3.29.94-4.23-.47-1.88-.47-4.23-.47-3.29-1.41-1.41-1.88-.94-3.29-1.41-1.88-1.41-.94-4.7-.94-7.52.94-1.88,1.41-1.41,1.88-.94,1.88-2.35,3.76-3.29,3.29-1.88,3.76v1.88l.94,1.88,2.82,2.82,6.58,7.99,2.82,1.88.94-.94.47-1.41v-1.41l1.41-3.29,1.41-1.88,1.88-.94,1.88-.47,4.23.47,1.41-.94,1.41-1.88,2.82-4.23,1.88-.47,1.88.94.47,2.35-.47,3.29-1.41,2.82-2.35,3.76-1.88,2.82-1.41,2.82-.94,1.88v2.35l.94,1.88,2.82,2.82.94,1.88-1.41,4.7h2.35l.94.47,5.64-1.88,6.11-2.82,6.58,3.29,6.11,5.64,3.76,2.82,3.29,1.88,5.17,6.58,5.64,2.35,13.63,11.28,1.88,2.82.94,3.29h0ZM33.51,204.41l3.76,1.41,3.29-.94,1.41-1.88-.47-3.76-1.41-2.35-2.35-1.88-2.35-.94-2.35.94-1.41,1.88-.47,2.82.47,2.82,1.88,1.88h0Z"/>
        <path class="cls-8" d="m109.19,399.47c-.09,0-.17,0-.26,0l-8.46-.47c-2.01-.11-3.72-1.49-4.26-3.43l-2.24-7.98-6.44.59c-1.32.11-2.62-.32-3.6-1.21-.57-.52-1-1.17-1.25-1.88l-9.83-11.46-18.45-9.45c-1.1-.56-1.93-1.53-2.32-2.7l-1.89-5.68-6.84-5.24c-1.25-.95-1.93-2.46-1.84-4.03l.9-14.43-.71-3.56-4.94-10.78c-.56-1.22-.57-2.62-.03-3.84l2.97-6.79.25-3.22-9.36-9.76c-.84-.87-1.31-2.04-1.31-3.25v-11.28c0-1.3.54-2.54,1.48-3.43.95-.89,2.21-1.37,3.51-1.26l6.47.4,10.06-4.14.32-.63.29-1.47.45-5.37c.07-.79.33-1.55.77-2.21l.94-1.41c.65-.98,1.64-1.67,2.77-1.96l12.12-3.03,1.13-.94.59-1.37-.04-2.17-16.58,8.7c-.67.35-1.42.54-2.18.54h-3.76c-2.27,0-4.22-1.62-4.62-3.86l-.94-5.17c-.23-1.29.08-2.63.88-3.68l9.97-13.16-16.25,2.77c-1.51.24-3.04-.23-4.12-1.32l-.94-.94c-.17-.17-.33-.36-.47-.55l-3.76-5.17c-.4-.55-.67-1.18-.81-1.84l-3.08-15.42-13.96-1.51c-1.32-.14-2.52-.84-3.3-1.92s-1.06-2.44-.79-3.74l2.27-10.59-7.96-7.59c-1.23-1.17-1.73-2.9-1.32-4.54l.68-2.72-7.94-38.88-4.16.42c-1.57.17-3.14-.5-4.14-1.74l-1.88-2.35c-.45-.56-.76-1.21-.92-1.91l-.94-4.23c-.08-.34-.11-.68-.11-1.02v-9.4c0-.64.13-1.27.38-1.85l1.41-3.29c.23-.55.57-1.05,1-1.47l1.88-1.88c.52-.52,1.14-.9,1.84-1.14l2.82-.94c.65-.22,1.35-.29,2.03-.21l6.74.78-.2-4.25-3.36-11.33-2.31-3.09-3.56-3.93-.92-.62c-1.43-.95-2.22-2.6-2.08-4.31s1.21-3.2,2.77-3.9l.47-.21-1.19-4.04c-.51-1.75.03-3.63,1.39-4.84l2.55-2.27-.34-7.08-1.73-6.06c-.19-.67-.23-1.37-.12-2.06l.47-2.82c.09-.56.29-1.1.58-1.6l3.29-5.64c.87-1.49,2.52-2.39,4.21-2.33,1.73.06,3.28,1.05,4.05,2.6l.25.38,2.59-1.73,6.09-8.26c.38-.52.86-.95,1.42-1.27l5.64-3.29c.28-.16.58-.3.88-.4l2.82-.94c.96-.32,2.01-.32,2.97,0l2.82.94c.69.23,1.32.62,1.84,1.14l.67.67,1.6-3.52c.6-1.33,1.78-2.3,3.2-2.63l5.68-1.34,4.71-10.98c.32-.76.84-1.41,1.5-1.91l1.88-1.41c.5-.37,1.07-.64,1.68-.8l1.88-.47c1.25-.31,2.57-.1,3.65.59,1.09.69,1.84,1.79,2.1,3.05l.47,2.35c.04.21.07.43.08.65l.47,7.99c.02.25.01.5-.01.74l-.1.96,2.1.7,5.65-1.38,1.34-.81,7.2-6.3c.52-.46,1.14-.79,1.8-.98l3.29-.94c.42-.12.85-.18,1.29-.18h5.84l.13-1.05-1.71-3.43c-.19-.37-.32-.77-.4-1.18l-.47-2.35c-.11-.56-.12-1.13-.03-1.7l.33-1.97v-.02s-2.18,3.11-2.18,3.11c-.16.22-.33.43-.53.62l-1.41,1.41c-.88.88-2.08,1.38-3.33,1.38h-1.88c-1.25,0-2.44-.5-3.32-1.38l-1.41-1.41c-.22-.22-.42-.46-.59-.72l-.94-1.41c-.51-.77-.79-1.68-.79-2.6v-1.69l-.76-2.66c-.26-.91-.24-1.88.06-2.78l.47-1.39-1.88.7c-.53.2-1.09.3-1.65.3h-2.35c-.73,0-1.45-.17-2.1-.5l-1.88-.94c-.25-.12-.49-.27-.71-.44l-1.88-1.41c-.36-.27-.67-.58-.94-.94l-1.41-1.88c-.17-.23-.32-.47-.45-.72l-.94-1.88c-.4-.81-.57-1.72-.47-2.62l.47-4.23c.04-.35.11-.69.23-1.01l4.7-13.63c.1-.28.22-.54.36-.8l1.88-3.29c.32-.56.75-1.04,1.26-1.43l1.88-1.41c.23-.17.47-.32.72-.45l1.88-.94,2.8-1.77,3.8-4.22c.23-.25.48-.48.76-.68l3.29-2.35c.44-.31.92-.55,1.44-.69l3.68-1.23,1.22-1.22.16-.95v-4.78c0-1.57.78-3.04,2.09-3.91l1.41-.94c.45-.3.95-.52,1.48-.65l1.88-.47c.37-.09.75-.14,1.13-.14h2.35l5.25.42,1.53-.61,2.85-2.44c.18-.15.37-.29.57-.42l3.53-2.21,1.93-1.54,2.85-2.85,4.96-6.76c.14-.19.3-.37.47-.54l4.23-4.23c.22-.22.46-.42.72-.59l2.82-1.88c.51-.34,1.08-.58,1.68-.7l2.35-.47c1.03-.21,2.09-.06,3.03.41l1.88.94c.22.11.43.23.63.38l3.68,2.61,5.53.79c.28.04.55.1.82.19l5.64,1.88,5.63,2.33,2.86.72h3.65l6.09.46,4.63-.39,11.63-4.31,17.44-11.02c.27-.17.56-.31.86-.42l3.76-1.41c1.01-.38,2.12-.4,3.14-.06l2.82.94c.69.23,1.32.62,1.84,1.14l2.28,2.28,2.85.57h6.58l5.17.49c1.08.11,2.09.59,2.86,1.35l1.88,1.88c.88.88,1.38,2.08,1.38,3.32v2.82c0,1.36-.59,2.65-1.61,3.54l-3.06,2.68-.35.69-1.03,3.43,2.05.77c1.11.42,2.03,1.24,2.56,2.3l.94,1.88c.33.65.5,1.37.5,2.1v3.76c0,.28-.03.56-.08.84l-.89,4.92-.45,6.33c-.04.52-.16,1.04-.37,1.52l-1.31,3.06,3.34.77,5.76.44c.21.02.41.05.62.09l2.76-5.86c.45-.95,1.21-1.73,2.15-2.2l3.76-1.88c1-.5,2.15-.63,3.24-.36l1.88.47c1.14.28,2.13.98,2.77,1.95l.94,1.41c.51.77.79,1.68.79,2.61v.91l2.12.79c.63.24,1.2.6,1.68,1.08l1.88,1.88c.52.52.9,1.15,1.14,1.84l.47,1.41c.32.97.32,2.01,0,2.97l-1.41,4.23c-.13.39-.32.77-.55,1.12l-.94,1.41c-.73,1.1-1.89,1.84-3.19,2.04l-.99.15,4.95,1.52c1.23.38,2.25,1.24,2.82,2.39l.94,1.88c.33.65.5,1.37.5,2.1v1.88c0,.5-.08,1.01-.24,1.49l-.94,2.82c-.39,1.18-1.24,2.16-2.35,2.72l-.94.47c-.2.1-.41.19-.62.26l-2.82.94c-.48.16-.98.24-1.48.24h-.09l-2.9,2.58c-.57.5-1.25.86-1.98,1.05l-1.88.47c-.37.09-.76.14-1.14.14h-3.57l-2.66.76c-.59.17-1.2.23-1.81.15l-2.84-.31.45,2.24c.11.52.12,1.06.04,1.59l-.47,3.29c-.07.5-.22.98-.45,1.44l-1.41,2.82-4.36,6.84-1.72,3.58.1.2,2.28,2.28c.36.36.65.77.88,1.22l.94,1.88c.22.44.37.92.45,1.4l1.14-.38,5.87-2.71c1.3-.59,2.8-.58,4.07.06l6.58,3.29c.39.2.76.45,1.09.75l5.94,5.48,3.33,2.5,3.04,1.74c.53.3.99.7,1.37,1.18l4.41,5.62,4.51,1.88c.43.18.83.42,1.19.72l13.63,11.28c.35.29.66.63.91,1.01l1.88,2.82c.27.41.48.85.61,1.32l.94,3.29c.68,2.37-.59,4.86-2.9,5.7l-14.1,5.17c-.88.32-1.85.37-2.76.15l-5.64-1.41c-.25-.06-.48-.14-.71-.24l-2.63-1.13-12.43-1.29-6.42.68.06.1c.26.42.45.87.57,1.35l.47,1.88c.09.37.14.75.14,1.14v1.88c0,.6-.11,1.19-.34,1.74l-.94,2.35c-.19.48-.46.92-.8,1.32l-2.44,2.85-.68,1.36c-.17.35-.39.68-.65.97l-1.45,1.67c1.3.2,2.48.93,3.22,2.04l.94,1.41c.23.35.42.72.55,1.12l.47,1.41c.16.48.24.98.24,1.49v2.35c0,.26-.02.52-.06.77l-.47,2.82c-.09.55-.28,1.08-.56,1.56l-1.41,2.47,3.47,3.16c.6.6,1.03,1.35,1.23,2.18l.34,1.38.71,1.42c.16.31.28.63.36.97l.47,1.88c.09.37.14.75.14,1.14v1.41c0,.47-.07.93-.21,1.38l-1.67,5.43v5.14l.44,3.97c.02.17.03.34.03.52v2.35c0,.83-.22,1.65-.64,2.37l-3.29,5.64c-.2.35-.45.67-.73.95l-1.41,1.41c-.6.6-1.36,1.03-2.19,1.24l-1.01.25c.08.2.15.42.2.63l.47,1.88c.09.37.14.75.14,1.14v4.23l1.27,5.91c.05.2.09.41.11.62l.47,4.23c.03.29.04.59.02.88l-.47,6.11c-.02.3-.08.6-.16.9l-2.35,8.46c-.11.41-.28.8-.5,1.16l-1.41,2.35c-.2.33-.44.63-.71.9l-.21.21,5.52,8.47c.33.5.56,1.06.67,1.65l.37,1.87.76,1.76,3.78,3.02c.46.37.85.82,1.15,1.34l3.72,6.95,1.64,2.29.92.61h5.76l4.36-.8c.37-.09.76-.14,1.14-.14h1.88c.5,0,1.01.08,1.49.24l1.41.47c1.04.35,1.92,1.04,2.5,1.97l2.35,3.76c.17.27.31.55.42.84l1.41,3.76c.11.31.2.63.25.95l1.41,9.4c.35,2.31-1.06,4.53-3.3,5.2l-2.58.77-5.48,12.92-.86,5.97c-.05.37-.15.73-.29,1.08l-.94,2.35c-.56,1.4-1.76,2.45-3.22,2.81l-1.88.47c-.37.09-.76.14-1.14.14h-.03l-2.52,8.4c-.64,2.11-2.64,3.51-4.86,3.33l-5.39-.42-3.81.88-19.19,24.1c-1,1.26-2.56,1.91-4.17,1.75-1.6-.17-3-1.14-3.72-2.57l-4.57-8.93-4.78-1.99c-.73-.31-1.37-.79-1.86-1.4l-3.85-4.88v3.57l1.85,17.14c.1.9-.06,1.8-.47,2.6l-.94,1.88c-.35.7-.86,1.29-1.49,1.74l-7.99,5.64c-.45.32-.96.56-1.5.7l-3.83,1.02-.68,8.9c-.17,2.21-1.87,4-4.07,4.3l-4.58.61-12.99,25.97c-1.07,2.14-3.58,3.14-5.82,2.31l-10.89-3.99.26,2.35c.22,1.96-.81,3.84-2.57,4.72l-6.58,3.29c-.91.46-1.94.6-2.94.42l-9.5-1.73-3.58.65-4.24,2.46-2,4.39c-.23.51-.56.98-.95,1.38l-1.41,1.41c-.36.36-.77.65-1.22.88l-3.48,1.74-.29.48-.22,1.09v12.7c0,1.29-.53,2.53-1.47,3.42-.87.83-2.03,1.29-3.23,1.29Zm-4.84-9.68h.14s0-8.19,0-8.19c0-.31.03-.62.09-.92l.47-2.35c.11-.53.3-1.04.58-1.5l1.41-2.35c.46-.77,1.13-1.39,1.93-1.79l4.28-2.28,2-4.39c.23-.51.56-.98.95-1.38l1.41-1.41c.32-.32.68-.59,1.07-.8l5.17-2.82c.44-.24.92-.41,1.41-.5l5.17-.94c.56-.1,1.12-.1,1.68,0l8.8,1.6,2.25-1.12-.11-.97c-.06-.48-.03-.97.06-1.44l.47-2.35c.18-.91.63-1.74,1.28-2.4l1.41-1.41c.52-.52,1.15-.91,1.84-1.14l1.41-.47c1.01-.33,2.1-.31,3.1.05l10.16,3.72,12.22-24.44c.7-1.39,2.04-2.35,3.58-2.56l3.28-.44.65-8.43c.15-1.99,1.55-3.67,3.47-4.18l6.24-1.66,6.11-4.31-1.71-15.77c-.02-.17-.03-.34-.03-.5v-6.11c0-1.37.6-2.68,1.64-3.57l3.29-2.82c1.01-.86,2.34-1.26,3.64-1.09l3.76.47c1.24.15,2.36.79,3.13,1.78l4.38,5.59,4.53,1.89c.57.24,1.08.58,1.52,1.02l1.41,1.41c.36.36.65.77.88,1.22l1.41,2.81,15.62-19.62c.66-.83,1.59-1.41,2.62-1.65l6.11-1.41c.46-.11.94-.14,1.42-.11l2.33.18,1.73-5.77c.13-.44.33-.87.59-1.25l.94-1.41c.34-.52.79-.97,1.31-1.31l1.41-.94c.77-.51,1.68-.79,2.6-.79h.22l.77-5.37c.06-.4.17-.8.33-1.17l6.58-15.51c.55-1.29,1.64-2.27,2.98-2.67l.8-.24-.73-4.88-1.07-2.86-.99-1.58-1.16.29c-.16.04-.31.07-.48.09l-3.29.47c-.22.03-.44.05-.67.05h-7.52c-.93,0-1.83-.28-2.61-.79l-2.82-1.88c-.47-.32-.89-.72-1.22-1.18l-2.35-3.29c-.14-.2-.27-.41-.38-.63l-3.19-6.04-4-3.2c-.6-.48-1.08-1.11-1.38-1.82l-1.41-3.29c-.13-.3-.22-.61-.29-.93l-.29-1.46-6.55-10.05c-.5-.76-.76-1.66-.76-2.57v-1.41c0-1.25.5-2.44,1.38-3.32l1.94-1.94.78-1.31,2.06-7.4.4-5.21-.78-5.05-.99-4.92c-.06-.3-.09-.61-.09-.92l-.17-4.81-1.56-2.72c-.41-.71-.62-1.51-.62-2.33v-1.41c0-1.92,1.17-3.65,2.95-4.36l2.35-.94c.2-.08.4-.15.61-.2l2.55-.68,2.35-4.02v-.82l-.44-3.97c-.02-.17-.03-.34-.03-.52v-6.11c0-.47.07-.93.21-1.38l1.67-5.56-.2-.81-.71-1.42c-.15-.31-.27-.63-.36-.96l-.15-.62-.49-.49-2.5-2.06c-.5-.41-.9-.93-1.19-1.51l-.94-1.88c-.47-.94-.61-2-.41-3.03l.47-2.35c.1-.5.28-.97.53-1.41l1.46-2.56.18-1.1c-.56.23-1.18.36-1.79.36h-1.88c-1.57,0-3.04-.78-3.91-2.09l-.94-1.41c-.73-1.1-.97-2.46-.65-3.75l.47-1.88c.18-.72.53-1.38,1.01-1.94l5.72-6.61.68-1.35c.17-.34.38-.66.63-.95l2.31-2.7.31-1.19-.15-.6-1.96-3.13c-.67-1.08-.88-2.39-.57-3.63l.47-1.88c.36-1.43,1.36-2.6,2.71-3.19l3.29-1.41c.43-.18.89-.3,1.36-.35l8.93-.94c.33-.03.65-.03.98,0l13.63,1.41c.47.05.93.17,1.37.36l2.94,1.26,3.87.97,8.15-2.99-.14-.2-12.56-10.39-4.99-2.08c-.74-.31-1.39-.81-1.89-1.44l-4.6-5.86-2.49-1.43c-.17-.1-.33-.2-.49-.32l-3.76-2.82c-.13-.1-.25-.2-.37-.31l-5.62-5.19-3.96-1.98-4.06,1.87c-.16.07-.32.14-.48.19l-5.64,1.88c-1.17.39-2.43.31-3.54-.23h-1.24c-1.48,0-2.88-.7-3.77-1.9-.89-1.19-1.16-2.73-.73-4.16l.82-2.73-1.99-1.99c-.36-.36-.66-.77-.88-1.22l-.94-1.88c-.33-.65-.5-1.37-.5-2.1v-2.35c0-.73.17-1.45.49-2.1l2.35-4.71c.09-.17.18-.34.29-.5l.8-1.2c-.38.06-.78.06-1.17.02l-3.39-.38-.99.35-.41.54-.81,2.33c0,.5-.08,1.01-.24,1.49l-.47,1.41c-.23.69-.62,1.32-1.13,1.83l-.94.94c-1.58,1.58-4.06,1.84-5.94.59l-2.82-1.88c-.38-.25-.73-.57-1.02-.92l-6.58-7.99-2.52-2.49c-.36-.36-.65-.77-.88-1.22l-.94-1.88c-.33-.65-.5-1.37-.5-2.1v-1.88c0-.73.17-1.45.5-2.1l1.88-3.76c.23-.45.52-.87.88-1.22l2.91-2.91,2.79-4.8c.13-.25.28-.49.44-.72l1.41-1.88c.27-.36.59-.67.94-.94l1.88-1.41c.65-.49,1.42-.8,2.24-.9l7.52-.94c.5-.06,1.01-.05,1.51.06l4.7.94c.6.12,1.17.36,1.68.7l1.41.94c.45.29.84.66,1.15,1.09l1.41,1.88c.35.46.6.98.76,1.53l.84,2.63,1.49.64,3.54.39c.21.02.42.06.62.11l1.57.39,3,.33,2.4-.68c.42-.12.85-.18,1.29-.18l3.85-.05,3.37-3c.86-.76,1.97-1.19,3.12-1.19h.34l-2.2-.68c-.44-.13-.85-.33-1.23-.58l-2.82-1.88c-.44-.3-.83-.66-1.15-1.09l-2.82-3.76c-.61-.81-.94-1.8-.94-2.82v-2.35c0-2.6,2.1-4.7,4.7-4.7h1.99l3.42-.53.23-.69-2.58-.97c-.63-.24-1.2-.61-1.68-1.08l-1.41-1.41c-.28-.28-.53-.6-.73-.94l-2.04,4.32c-.51,1.08-1.4,1.92-2.51,2.36l-2.35.94c-.92.37-1.93.44-2.89.2l-1.49-.37-5.71-.44c-.23-.02-.47-.05-.7-.11l-6.11-1.41c-.36-.08-.72-.21-1.05-.38l-1.88-.94c-.45-.22-.86-.52-1.21-.87l-.94-.94c-1.43-1.43-1.79-3.62-.89-5.43l2.86-6.07.41-5.8c.01-.17.03-.34.06-.5l.86-4.75v-1.61l-1.65-.62c-.84-.31-1.57-.87-2.11-1.58l-1.41-1.88c-.61-.81-.94-1.8-.94-2.82v-2.35c0-.46.07-.91.2-1.35l1.41-4.7c.08-.26.18-.51.3-.75l.94-1.88c.27-.55.65-1.03,1.11-1.43l.23-.2-.42-.04-6.58.02c-.31,0-.62-.03-.92-.09l-4.7-.94c-.91-.18-1.74-.63-2.4-1.29l-2.69-2.57-1.75.66-17.45,11.02c-.28.17-.57.32-.88.43l-12.69,4.7c-.4.15-.82.24-1.24.28l-5.64.47c-.24.02-.5.03-.75,0l-6.11-.47h-3.87c-.39.01-.77-.03-1.14-.13l-3.76-.94c-.23-.06-.45-.13-.67-.22l-5.64-2.35-4.91-1.62-6.17-.88c-.69-.1-1.36-.35-1.94-.74l-4.58-3.19-1.57,1.05-3.65,3.64-4.96,6.76c-.14.19-.3.37-.46.54l-3.29,3.29c-.12.12-.25.24-.39.35l-2.35,1.88c-.14.11-.29.22-.45.32l-3.46,2.16-3.02,2.59c-.29.25-.61.46-.96.64l-1.88.94c-.31.15-.63.27-.97.36l-1.88.47c-.49.13-1.01.17-1.52.12l-5.64-.47h-.55v1.9c0,.26-.02.52-.06.77l-.47,2.82c-.16.97-.62,1.86-1.31,2.55l-2.82,2.82c-.36.36-.77.65-1.22.88l-1.88.94c-.26.13-.53.24-.81.32l-2.51.72-2.21,1.58-3.89,4.32c-.29.33-.63.61-1,.84l-6.41,3.89-1.18,2.06-4.39,12.72-.26,2.33.88,1.26,1.9,1.01,2.5-.94,4.83-3.26,1.54-3.08c.09-.18.19-.35.3-.51l.94-1.41c.55-.82,1.34-1.45,2.26-1.79l3.76-1.41c1.23-.47,2.59-.39,3.76.2l1.88.94c.17.09.34.18.5.29l1.41.94c.56.37,1.03.85,1.38,1.42l2.35,3.76c.26.42.45.88.57,1.36l.47,1.88c.24.96.17,1.96-.2,2.88l-.94,2.35c-.37.94-1.04,1.73-1.9,2.26l-3.43,2.11h.96c.73,0,1.45.17,2.1.5l1.88.94c1.23.61,2.13,1.73,2.46,3.06l.99,4.45c.11.56.12,1.13.03,1.7l-.33,1.97.18.89,2.07,4.14c.42.83.57,1.76.46,2.69l-.47,3.76c-.09.73-.35,1.42-.76,2.03l-.94,1.41c-.3.44-.66.83-1.09,1.15l-1.88,1.41c-.81.61-1.8.94-2.82.94h-6.86l-1.64.47-6.73,5.89c-.21.18-.44.35-.68.49l-2.35,1.41c-.43.26-.91.45-1.4.56l-7.25,1.81c-.91.26-1.88.24-2.78-.06l-7.05-2.35c-1.98-.66-3.27-2.54-3.21-4.6l-.85,1.99c-.59,1.37-1.79,2.38-3.24,2.72l-5.74,1.35-1.4,3.07c-.14.31-.31.61-.52.88l-1.41,1.88c-.44.58-1.01,1.05-1.65,1.38l-1.88.94c-1.33.67-2.88.66-4.21,0l-.94-.47c-.45-.23-.87-.52-1.22-.88l-2.78-2.6-.87.29-4.38,2.56-6.01,8.15c-.33.44-.72.82-1.18,1.12l-5.64,3.76c-1.4.93-3.2,1.05-4.71.29l-1.4-.7-.15.92,1.59,5.57c.1.35.16.7.18,1.06l.47,9.87c.07,1.42-.51,2.79-1.57,3.74l-2.01,1.78,1.51,5.13c.45,1.53.08,3.13-.87,4.3l1.26,1.4,3.09,4.09c.34.45.59.95.75,1.48l3.76,12.69c.11.36.17.74.19,1.12l.47,10.34c.06,1.38-.48,2.71-1.49,3.65-1.01.94-2.36,1.41-3.75,1.23l-11.18-1.29-.78.26-.45.45-.67,1.57v7.92l.48,2.14,6.58-.66c2.24-.26,4.35,1.19,4.98,3.37.34,1.18.2,2.4-.32,3.43l8.4,41.13c.14.69.12,1.4-.05,2.08l-.28,1.1,7.89,7.51c1.18,1.13,1.7,2.79,1.36,4.39l-1.73,8.06,11.15,1.21-.33-1.96c-.08-.51-.08-1.04,0-1.55l.47-2.82c.12-.74.42-1.44.87-2.04l1.41-1.88c.52-.69,1.21-1.23,2.02-1.54l2.35-.94c1.12-.45,2.37-.45,3.49,0l2.35.94c.43.17.83.4,1.19.69l2.35,1.88c.44.35.81.77,1.09,1.25l1.41,2.35c.34.56.55,1.19.63,1.84l.47,3.76c.15,1.21-.17,2.42-.9,3.4l-1.41,1.88c-.62.82-1.48,1.42-2.47,1.7l-3.29.94c-.97.28-2,.23-2.94-.12l-3.06-1.15,3,15.03,2.15,2.96,16.62-2.84c.99-.17,2-.02,2.9.43l1.88.94c.61.3,1.14.73,1.57,1.26l1.88,2.35c.87,1.08,1.21,2.5.94,3.86l-.47,2.35c-.14.7-.43,1.35-.86,1.92l-8.64,11.4,14.46-7.59c.95-.5,2.05-.66,3.11-.45l2.35.47c.91.18,1.74.63,2.4,1.29l1.88,1.88c.69.69,1.15,1.58,1.31,2.55l.47,2.82c.04.25.06.51.06.77v3.29c0,.64-.13,1.27-.38,1.85l-1.41,3.29c-.29.68-.74,1.28-1.31,1.76l-2.82,2.35c-.54.45-1.18.78-1.87.95l-10.74,2.69-.29,3.49c-.02.18-.04.36-.08.53l-.47,2.35c-.08.41-.22.81-.4,1.18l-.94,1.88c-.22.45-.52.87-.88,1.22l-1.41,1.41c-.45.45-.99.81-1.58,1.04l-11.75,4.7c-.65.26-1.35.37-2.04.33l-2.53-.16v4.39l9.51,9.92c.92.97,1.4,2.28,1.29,3.61l-.47,6.11c-.04.53-.17,1.04-.38,1.52l-2.45,5.59,4.29,9.37c.15.33.26.68.34,1.04l.94,4.7c.08.4.11.81.08,1.22l-.78,12.54,6,4.59c.75.57,1.31,1.35,1.6,2.25l1.74,5.23,17.56,8.99c.55.28,1.03.66,1.43,1.12l10.08,11.76,7.55-.69c2.29-.16,4.34,1.23,4.95,3.42l2.38,8.51ZM36.12,200.37l.75.28-.37-.62-.55-.44-.02.12.19.66ZM207.53-6.59l2.28,2.28,4.23,5.11.35-.81c.15-.35.34-.67.56-.97l1.41-1.88c.44-.58,1.01-1.05,1.65-1.38l1.88-.94c.31-.15.63-.27.96-.36l1.88-.47c.54-.13,1.11-.18,1.66-.11l2.21.25.56-.74,2.67-4.02c.12-.18.25-.35.39-.5l-.21-.09c-.76-.32-1.41-.84-1.9-1.5l-1.41-1.88c-.34-.46-.6-.98-.76-1.53l-.7-2.45-.39-.52-3.02-.61-5.87.95-.75,1-.75,1.5-2.57,4.15c-.19.3-.41.58-.66.83l-2.75,2.75-.96,1.91.02.04Zm-129.64.14s-.02.06-.03.09c.03-.03.05-.06.08-.09h-.05Zm2.43-13.24l-1.71,3.41c-.06.12-.13.25-.2.36h.14s3.36-2.08,3.36-2.08l-1.23-1.83-.37.14Zm277.05,86.38c-1.46,0-2.86-.68-3.76-1.88l-1.3-1.41h-15.15c-.67,0-1.33-.14-1.94-.42l-9.92-4.51-13.65-3.19c-.29-.07-.57-.16-.84-.28l-12.69-5.64c-.32-.14-.63-.32-.91-.53l-5.64-4.23c-.23-.17-.45-.37-.64-.59l-5.17-5.64c-.39-.42-.69-.9-.9-1.43l-.94-2.35c-.36-.92-.43-1.92-.2-2.88l.47-1.88c.18-.71.52-1.37.99-1.93l2.61-3.04,4.05-6.31c.18-.28.39-.55.63-.78l1.41-1.41c.66-.66,1.49-1.1,2.4-1.29l2.35-.47c.2-.04.39-.07.59-.08l13.16-.94c.25-.01.49-.01.73,0l5.64.47c.18.02.35.04.53.07l2.35.47c.41.08.81.22,1.18.41l2.45,1.23,12.01,3.56,2.53.36.89-.44c1.2-.6,2.59-.66,3.84-.16l2.35.94c.75.3,1.42.79,1.93,1.43l2.12,2.35,1.28-.26c2.07-.41,4.17.61,5.12,2.5l.47.94c.47.94.61,2,.41,3.03l-.47,2.35c-.04.19-.09.38-.15.56l-.94,2.82c-.07.21-.16.42-.25.62l-1.88,3.76c-.22.45-.52.86-.88,1.22l-1.88,1.88c-.31.31-.66.57-1.04.78l1.03,1.03c.3.3.55.63.76.99l.6,1.05.58-.72c.3-.38.66-.71,1.07-.98l1.41-.94c.77-.51,1.68-.79,2.6-.79h1.41c1.92,0,3.65,1.17,4.36,2.95l.94,2.35,1.51,4.49c.16.48.24.98.24,1.48v3.29c0,.5-.08,1.01-.24,1.49l-.47,1.41c-.36,1.06-1.08,1.96-2.04,2.54l-2.35,1.41c-.46.28-.97.47-1.49.58l-2.35.47c-.31.06-.62.09-.92.09Zm-19.19-12.69h7.8l-1.31-2.29-3.78-3.78c-1.07-1.07-1.56-2.6-1.31-4.1l.47-2.82c.29-1.72,1.5-3.14,3.15-3.69l2.6-.95.67-.67,1.27-2.54c-.59-.15-1.15-.42-1.64-.79l-1.88-1.41c-.31-.24-.6-.51-.85-.82l-.73-.91c-.54.21-1.12.32-1.71.32h-1.88c-.26,0-.52-.02-.77-.06l-2.82-.47c-.19-.03-.38-.08-.56-.13l-12.69-3.76c-.26-.08-.52-.18-.77-.31l-2.26-1.13-1.47-.29-5.01-.42-13.21,1.07-3.96,6.15c-.12.18-.25.36-.39.52l-1.76,2.05,4.18,4.56,4.87,3.65,11.8,5.24,13.66,3.19c.3.07.6.17.88.3l9.42,4.28Z"/>
      </g>
      <circle class="cls-1" cx="158.73" cy="159" r="233.54"/>
    </g>
    <circle class="cls-4" cx="158.73" cy="159" r="151.5"/>
    <g>
      <g>
        <path class="cls-3" d="m91.52,120.04v-25.2h9.18c7.34,0,10.44,2.09,10.44,6.3,0,3.42-1.69,5.4-5.26,6.05,4.32.65,6.19,2.41,6.19,5.69,0,5-3.1,7.16-11.01,7.16h-9.54Zm7.2-19.8v4.86h1.66c2.63,0,3.56-.86,3.56-2.56,0-1.51-1.04-2.3-3.31-2.3h-1.91Zm0,9.54v4.86h2.23c2.63,0,3.56-.86,3.56-2.56,0-1.51-1.04-2.3-3.31-2.3h-2.48Z"/>
        <path class="cls-3" d="m121.76,100.96v8.57c0,2.05.04,2.81.54,3.49.47.61,1.15.86,2.05.86s1.66-.25,2.09-.5v-12.42h6.98v19.08h-5.9l-.5-2.56c-1.55,1.91-3.2,2.92-6.12,2.92-2.23,0-3.82-.72-4.79-2.02-1.08-1.44-1.33-2.99-1.33-7.09v-10.33h6.98Z"/>
        <path class="cls-3" d="m137.39,120.04v-19.08h5.9l.79,3.89c1.26-2.63,3.46-4.25,6.19-4.25l.36,6.84c-2.88-.14-4.9.65-6.26,2.59v10.01h-6.98Z"/>
        <path class="cls-3" d="m150.85,124.21c0-1.58.76-2.84,2.99-4.1-1.33-.65-1.87-1.62-1.87-3.02,0-1.69,1.3-3.17,4.68-4.32-3.2-.79-4.61-2.81-4.61-5.69,0-3.85,3.1-6.48,8.67-6.48,1.73,0,3.2.22,4.43.61l7.06-.61v5.29l-2.48-.32c.11.47.18.94.18,1.44,0,3.64-2.05,5.54-6.95,6.55-3.49.72-3.85.94-3.85,1.4s.5.58,3.1.58c4.46,0,6.41.43,7.77,1.69,1.04.97,1.48,2.34,1.48,3.74,0,5.11-4.93,7.7-12.6,7.7-5.8,0-7.99-1.55-7.99-4.46Zm9.54-.14c2.77,0,4.79-.72,4.79-1.8,0-.76-.72-1.15-3.92-1.15-1.44,0-2.66-.04-3.74-.14-.25.47-.36.94-.36,1.44,0,1.12.9,1.66,3.24,1.66Zm3.1-17.03c0-1.4-.9-2.23-2.34-2.23s-2.27.83-2.27,2.23.83,2.23,2.27,2.23,2.34-.83,2.34-2.23Z"/>
        <path class="cls-3" d="m172.92,110.86c0-6.37,4.21-10.26,10.29-10.26s9.93,3.24,9.93,9.97c0,6.08-4.21,9.83-10.29,9.83s-9.94-3.1-9.94-9.54Zm12.92-.25c0-3.13-.76-4.61-2.63-4.61s-2.99,1.48-2.99,4.61c0,2.88.76,4.39,2.63,4.39s2.99-1.51,2.99-4.39Z"/>
        <path class="cls-3" d="m195.31,120.04l-.25-5.15c1.48.25,2.77.4,4.28.4,1.87,0,3.28-.25,3.28-1.04,0-.4-.18-.79-2.63-1.73-4-1.51-5.4-2.95-5.4-6.12s2.95-5.8,8.53-5.8c1.91,0,3.49.11,5.22.36l.25,5.11c-1.48-.25-2.77-.4-4.28-.4-1.8,0-2.45.25-2.45.83,0,.5.32.83,2.84,1.76,4.1,1.55,5.18,3.17,5.18,5.76,0,4.14-3.64,6.33-9.36,6.33-1.91,0-3.49-.11-5.22-.32Z"/>
      </g>
      <g>
        <path class="cls-9" d="m91.52,120.04v-25.2h9.18c7.34,0,10.44,2.09,10.44,6.3,0,3.42-1.69,5.4-5.26,6.05,4.32.65,6.19,2.41,6.19,5.69,0,5-3.1,7.16-11.01,7.16h-9.54Zm7.2-19.8v4.86h1.66c2.63,0,3.56-.86,3.56-2.56,0-1.51-1.04-2.3-3.31-2.3h-1.91Zm0,9.54v4.86h2.23c2.63,0,3.56-.86,3.56-2.56,0-1.51-1.04-2.3-3.31-2.3h-2.48Z"/>
        <path class="cls-9" d="m121.76,100.96v8.57c0,2.05.04,2.81.54,3.49.47.61,1.15.86,2.05.86s1.66-.25,2.09-.5v-12.42h6.98v19.08h-5.9l-.5-2.56c-1.55,1.91-3.2,2.92-6.12,2.92-2.23,0-3.82-.72-4.79-2.02-1.08-1.44-1.33-2.99-1.33-7.09v-10.33h6.98Z"/>
        <path class="cls-9" d="m137.39,120.04v-19.08h5.9l.79,3.89c1.26-2.63,3.46-4.25,6.19-4.25l.36,6.84c-2.88-.14-4.9.65-6.26,2.59v10.01h-6.98Z"/>
        <path class="cls-9" d="m150.85,124.21c0-1.58.76-2.84,2.99-4.1-1.33-.65-1.87-1.62-1.87-3.02,0-1.69,1.3-3.17,4.68-4.32-3.2-.79-4.61-2.81-4.61-5.69,0-3.85,3.1-6.48,8.67-6.48,1.73,0,3.2.22,4.43.61l7.06-.61v5.29l-2.48-.32c.11.47.18.94.18,1.44,0,3.64-2.05,5.54-6.95,6.55-3.49.72-3.85.94-3.85,1.4s.5.58,3.1.58c4.46,0,6.41.43,7.77,1.69,1.04.97,1.48,2.34,1.48,3.74,0,5.11-4.93,7.7-12.6,7.7-5.8,0-7.99-1.55-7.99-4.46Zm9.54-.14c2.77,0,4.79-.72,4.79-1.8,0-.76-.72-1.15-3.92-1.15-1.44,0-2.66-.04-3.74-.14-.25.47-.36.94-.36,1.44,0,1.12.9,1.66,3.24,1.66Zm3.1-17.03c0-1.4-.9-2.23-2.34-2.23s-2.27.83-2.27,2.23.83,2.23,2.27,2.23,2.34-.83,2.34-2.23Z"/>
        <path class="cls-9" d="m172.92,110.86c0-6.37,4.21-10.26,10.29-10.26s9.93,3.24,9.93,9.97c0,6.08-4.21,9.83-10.29,9.83s-9.94-3.1-9.94-9.54Zm12.92-.25c0-3.13-.76-4.61-2.63-4.61s-2.99,1.48-2.99,4.61c0,2.88.76,4.39,2.63,4.39s2.99-1.51,2.99-4.39Z"/>
        <path class="cls-9" d="m195.31,120.04l-.25-5.15c1.48.25,2.77.4,4.28.4,1.87,0,3.28-.25,3.28-1.04,0-.4-.18-.79-2.63-1.73-4-1.51-5.4-2.95-5.4-6.12s2.95-5.8,8.53-5.8c1.91,0,3.49.11,5.22.36l.25,5.11c-1.48-.25-2.77-.4-4.28-.4-1.8,0-2.45.25-2.45.83,0,.5.32.83,2.84,1.76,4.1,1.55,5.18,3.17,5.18,5.76,0,4.14-3.64,6.33-9.36,6.33-1.91,0-3.49-.11-5.22-.32Z"/>
      </g>
    </g>
    <g>
      <g>
        <path class="cls-3" d="m195.34,176.04l-.36-6.01c2.09.25,3.67.4,5.29.4,3.24,0,4.72-.54,4.72-1.69,0-.86-.54-1.4-4.46-2.99-4.25-1.76-6.26-3.67-6.26-7.74,0-4.79,3.82-7.52,11.16-7.52,2.23,0,3.74.18,5.15.36l.36,6.01c-2.38-.29-3.82-.4-5.58-.4-2.95,0-3.89.4-3.89,1.3,0,1.01.65,1.44,4.54,3.13,4.97,2.16,6.19,4.07,6.19,7.42,0,5.33-3.92,8.1-11.45,8.1-1.8,0-3.53-.11-5.4-.36Z"/>
        <path class="cls-3" d="m213.63,171c0-4.1,2.88-6.41,10.44-7.31-.72-1.01-2.34-1.26-4.72-1.26-1.22,0-2.38.11-4.21.29l.36-5.76c2.16-.22,3.6-.36,5.58-.36,6.77,0,10.04,2.09,10.04,8.75v10.69h-5.9l-.5-2.63c-1.22,1.98-3.24,2.99-5.76,2.99-3.31,0-5.33-2.09-5.33-5.4Zm7.88.43c1.58,0,3.02-1.55,2.99-3.49v-.14c-3.71.4-4.36,1.15-4.36,2.3,0,.94.54,1.33,1.37,1.33Z"/>
        <path class="cls-3" d="m235.09,176.04v-19.08h5.9l.5,2.52c1.73-1.94,3.74-2.88,6.26-2.88,2.3,0,3.89.72,4.86,2.02,1.08,1.44,1.33,2.99,1.33,7.09v10.33h-6.98v-8.57c0-2.05-.04-2.81-.54-3.49-.47-.61-1.15-.86-2.23-.86-.86,0-1.66.25-2.12.54v12.38h-6.98Z"/>
        <path class="cls-3" d="m264.39,176.04v-25.2h8.1c8.78,0,11.91,2.7,11.91,8.67s-3.78,9.72-11.16,9.72h-1.66v6.8h-7.2Zm7.2-19.44v6.88h1.3c2.56,0,4.28-1.04,4.28-3.6,0-2.2-1.12-3.28-3.74-3.28h-1.84Z"/>
        <path class="cls-3" d="m286.03,166.39c0-6.26,4.5-9.79,9.61-9.79,5.58,0,8.28,3.17,8.28,8.85,0,1.19-.07,2.2-.14,3.2h-10.44c.68,1.73,2.34,2.2,5.29,2.2,1.33,0,2.92-.14,4.07-.29l-.29,5.47c-1.37.18-3.17.32-5.54.32-7.31,0-10.83-3.13-10.83-9.97Zm6.98-1.44l4.32-.29c0-2.05-.58-2.95-1.84-2.95-1.33,0-2.23.94-2.48,3.24Z"/>
        <path class="cls-3" d="m319.43,176.04l-.54-2.77c-1.37,2.05-3.17,3.13-5.87,3.13-4.28,0-7.13-3.2-7.13-9.03,0-6.91,3.89-10.69,9.75-10.69.83,0,1.76.11,2.7.32v-8.31h6.98v27.36h-5.9Zm-3.71-5.83c1.19,0,1.98-.58,2.63-1.37v-6.26c-.61-.25-1.15-.32-1.8-.32-1.94,0-3.35,1.22-3.35,4.25,0,2.52,1.04,3.71,2.52,3.71Z"/>
        <path class="cls-3" d="m329.3,176.04v-19.08h5.9l.79,3.89c1.26-2.63,3.46-4.25,6.19-4.25l.36,6.84c-2.88-.14-4.9.65-6.26,2.59v10.01h-6.98Z"/>
        <path class="cls-3" d="m343.12,166.86c0-6.37,4.21-10.26,10.29-10.26s9.93,3.24,9.93,9.97c0,6.08-4.21,9.83-10.29,9.83s-9.94-3.1-9.94-9.54Zm12.92-.25c0-3.13-.76-4.61-2.63-4.61s-2.99,1.48-2.99,4.61c0,2.88.76,4.39,2.63,4.39s2.99-1.51,2.99-4.39Z"/>
        <path class="cls-3" d="m384.09,176.04l-.54-2.77c-1.37,2.05-3.17,3.13-5.87,3.13-4.28,0-7.13-3.2-7.13-9.03,0-6.91,3.89-10.69,9.75-10.69.83,0,1.76.11,2.7.32v-8.31h6.98v27.36h-5.9Zm-3.71-5.83c1.19,0,1.98-.58,2.63-1.37v-6.26c-.61-.25-1.15-.32-1.8-.32-1.94,0-3.35,1.22-3.35,4.25,0,2.52,1.04,3.71,2.52,3.71Z"/>
        <path class="cls-3" d="m392.69,166.39c0-6.26,4.5-9.79,9.61-9.79,5.58,0,8.28,3.17,8.28,8.85,0,1.19-.07,2.2-.14,3.2h-10.44c.68,1.73,2.34,2.2,5.29,2.2,1.33,0,2.92-.14,4.07-.29l-.29,5.47c-1.37.18-3.17.32-5.54.32-7.31,0-10.83-3.13-10.83-9.97Zm6.98-1.44l4.32-.29c0-2.05-.58-2.95-1.84-2.95-1.33,0-2.23.94-2.48,3.24Z"/>
        <path class="cls-3" d="m417.96,163.55c0-8.31,5.58-13.07,13.43-13.07,1.98,0,3.71.14,5.18.36l.36,6.12c-1.87-.25-3.13-.36-4.39-.36-4.61,0-7.2,1.94-7.2,6.7s2.81,6.98,7.16,6.98c1.84,0,3.1-.14,4.61-.36l-.36,6.12c-1.12.18-2.84.36-4.86.36-8.35,0-13.93-4.54-13.93-12.85Z"/>
        <path class="cls-3" d="m438.92,171c0-4.1,2.88-6.41,10.44-7.31-.72-1.01-2.34-1.26-4.72-1.26-1.22,0-2.38.11-4.21.29l.36-5.76c2.16-.22,3.6-.36,5.58-.36,6.77,0,10.04,2.09,10.04,8.75v10.69h-5.9l-.5-2.63c-1.22,1.98-3.24,2.99-5.76,2.99-3.31,0-5.33-2.09-5.33-5.4Zm7.88.43c1.58,0,3.02-1.55,2.99-3.49v-.14c-3.71.4-4.36,1.15-4.36,2.3,0,.94.54,1.33,1.37,1.33Z"/>
        <path class="cls-3" d="m460.37,176.04v-19.08h5.9l.79,3.89c1.26-2.63,3.46-4.25,6.19-4.25l.36,6.84c-2.88-.14-4.9.65-6.26,2.59v10.01h-6.98Z"/>
        <path class="cls-3" d="m487.73,176.04l-.54-2.77c-1.37,2.05-3.17,3.13-5.87,3.13-4.28,0-7.13-3.2-7.13-9.03,0-6.91,3.89-10.69,9.75-10.69.83,0,1.76.11,2.7.32v-8.31h6.98v27.36h-5.9Zm-3.71-5.83c1.19,0,1.98-.58,2.63-1.37v-6.26c-.61-.25-1.15-.32-1.8-.32-1.94,0-3.35,1.22-3.35,4.25,0,2.52,1.04,3.71,2.52,3.71Z"/>
        <path class="cls-3" d="m496.33,166.39c0-6.26,4.5-9.79,9.61-9.79,5.58,0,8.28,3.17,8.28,8.85,0,1.19-.07,2.2-.14,3.2h-10.44c.68,1.73,2.34,2.2,5.29,2.2,1.33,0,2.92-.14,4.07-.29l-.29,5.47c-1.37.18-3.17.32-5.54.32-7.31,0-10.83-3.13-10.83-9.97Zm6.98-1.44l4.32-.29c0-2.05-.58-2.95-1.84-2.95-1.33,0-2.23.94-2.48,3.24Z"/>
        <path class="cls-3" d="m517.11,176.04v-19.08h5.9l.5,2.52c1.73-1.94,3.74-2.88,6.26-2.88,2.3,0,3.89.72,4.86,2.02,1.08,1.44,1.33,2.99,1.33,7.09v10.33h-6.98v-8.57c0-2.05-.04-2.81-.54-3.49-.47-.61-1.15-.86-2.23-.86-.86,0-1.66.25-2.12.54v12.38h-6.98Zm2.27-22.14c.9-5.08,2.34-6.41,4.9-6.41,1.26,0,2.09.25,3.2,1.15.86.72,1.19,1.01,1.69,1.01.68,0,1.12-.32,1.62-2.16l3.78,1.08c-.9,5.08-2.34,6.41-4.9,6.41-1.26,0-2.09-.22-3.2-1.15-.86-.72-1.19-1.01-1.76-1.01-.61,0-1.04.32-1.55,2.16l-3.78-1.08Z"/>
        <path class="cls-3" d="m538.67,171c0-4.1,2.88-6.41,10.44-7.31-.72-1.01-2.34-1.26-4.72-1.26-1.22,0-2.38.11-4.21.29l.36-5.76c2.16-.22,3.6-.36,5.58-.36,6.77,0,10.04,2.09,10.04,8.75v10.69h-5.9l-.5-2.63c-1.22,1.98-3.24,2.99-5.76,2.99-3.31,0-5.33-2.09-5.33-5.4Zm7.88.43c1.58,0,3.02-1.55,2.99-3.49v-.14c-3.71.4-4.36,1.15-4.36,2.3,0,.94.54,1.33,1.37,1.33Z"/>
      </g>
      <g>
        <path class="cls-9" d="m195.34,176.04l-.36-6.01c2.09.25,3.67.4,5.29.4,3.24,0,4.72-.54,4.72-1.69,0-.86-.54-1.4-4.46-2.99-4.25-1.76-6.26-3.67-6.26-7.74,0-4.79,3.82-7.52,11.16-7.52,2.23,0,3.74.18,5.15.36l.36,6.01c-2.38-.29-3.82-.4-5.58-.4-2.95,0-3.89.4-3.89,1.3,0,1.01.65,1.44,4.54,3.13,4.97,2.16,6.19,4.07,6.19,7.42,0,5.33-3.92,8.1-11.45,8.1-1.8,0-3.53-.11-5.4-.36Z"/>
        <path class="cls-9" d="m213.63,171c0-4.1,2.88-6.41,10.44-7.31-.72-1.01-2.34-1.26-4.72-1.26-1.22,0-2.38.11-4.21.29l.36-5.76c2.16-.22,3.6-.36,5.58-.36,6.77,0,10.04,2.09,10.04,8.75v10.69h-5.9l-.5-2.63c-1.22,1.98-3.24,2.99-5.76,2.99-3.31,0-5.33-2.09-5.33-5.4Zm7.88.43c1.58,0,3.02-1.55,2.99-3.49v-.14c-3.71.4-4.36,1.15-4.36,2.3,0,.94.54,1.33,1.37,1.33Z"/>
        <path class="cls-9" d="m235.09,176.04v-19.08h5.9l.5,2.52c1.73-1.94,3.74-2.88,6.26-2.88,2.3,0,3.89.72,4.86,2.02,1.08,1.44,1.33,2.99,1.33,7.09v10.33h-6.98v-8.57c0-2.05-.04-2.81-.54-3.49-.47-.61-1.15-.86-2.23-.86-.86,0-1.66.25-2.12.54v12.38h-6.98Z"/>
        <path class="cls-9" d="m264.39,176.04v-25.2h8.1c8.78,0,11.91,2.7,11.91,8.67s-3.78,9.72-11.16,9.72h-1.66v6.8h-7.2Zm7.2-19.44v6.88h1.3c2.56,0,4.28-1.04,4.28-3.6,0-2.2-1.12-3.28-3.74-3.28h-1.84Z"/>
        <path class="cls-9" d="m286.03,166.39c0-6.26,4.5-9.79,9.61-9.79,5.58,0,8.28,3.17,8.28,8.85,0,1.19-.07,2.2-.14,3.2h-10.44c.68,1.73,2.34,2.2,5.29,2.2,1.33,0,2.92-.14,4.07-.29l-.29,5.47c-1.37.18-3.17.32-5.54.32-7.31,0-10.83-3.13-10.83-9.97Zm6.98-1.44l4.32-.29c0-2.05-.58-2.95-1.84-2.95-1.33,0-2.23.94-2.48,3.24Z"/>
        <path class="cls-9" d="m319.43,176.04l-.54-2.77c-1.37,2.05-3.17,3.13-5.87,3.13-4.28,0-7.13-3.2-7.13-9.03,0-6.91,3.89-10.69,9.75-10.69.83,0,1.76.11,2.7.32v-8.31h6.98v27.36h-5.9Zm-3.71-5.83c1.19,0,1.98-.58,2.63-1.37v-6.26c-.61-.25-1.15-.32-1.8-.32-1.94,0-3.35,1.22-3.35,4.25,0,2.52,1.04,3.71,2.52,3.71Z"/>
        <path class="cls-9" d="m329.3,176.04v-19.08h5.9l.79,3.89c1.26-2.63,3.46-4.25,6.19-4.25l.36,6.84c-2.88-.14-4.9.65-6.26,2.59v10.01h-6.98Z"/>
        <path class="cls-9" d="m343.12,166.86c0-6.37,4.21-10.26,10.29-10.26s9.93,3.24,9.93,9.97c0,6.08-4.21,9.83-10.29,9.83s-9.94-3.1-9.94-9.54Zm12.92-.25c0-3.13-.76-4.61-2.63-4.61s-2.99,1.48-2.99,4.61c0,2.88.76,4.39,2.63,4.39s2.99-1.51,2.99-4.39Z"/>
        <path class="cls-9" d="m384.09,176.04l-.54-2.77c-1.37,2.05-3.17,3.13-5.87,3.13-4.28,0-7.13-3.2-7.13-9.03,0-6.91,3.89-10.69,9.75-10.69.83,0,1.76.11,2.7.32v-8.31h6.98v27.36h-5.9Zm-3.71-5.83c1.19,0,1.98-.58,2.63-1.37v-6.26c-.61-.25-1.15-.32-1.8-.32-1.94,0-3.35,1.22-3.35,4.25,0,2.52,1.04,3.71,2.52,3.71Z"/>
        <path class="cls-9" d="m392.69,166.39c0-6.26,4.5-9.79,9.61-9.79,5.58,0,8.28,3.17,8.28,8.85,0,1.19-.07,2.2-.14,3.2h-10.44c.68,1.73,2.34,2.2,5.29,2.2,1.33,0,2.92-.14,4.07-.29l-.29,5.47c-1.37.18-3.17.32-5.54.32-7.31,0-10.83-3.13-10.83-9.97Zm6.98-1.44l4.32-.29c0-2.05-.58-2.95-1.84-2.95-1.33,0-2.23.94-2.48,3.24Z"/>
        <path class="cls-9" d="m417.96,163.55c0-8.31,5.58-13.07,13.43-13.07,1.98,0,3.71.14,5.18.36l.36,6.12c-1.87-.25-3.13-.36-4.39-.36-4.61,0-7.2,1.94-7.2,6.7s2.81,6.98,7.16,6.98c1.84,0,3.1-.14,4.61-.36l-.36,6.12c-1.12.18-2.84.36-4.86.36-8.35,0-13.93-4.54-13.93-12.85Z"/>
        <path class="cls-9" d="m438.92,171c0-4.1,2.88-6.41,10.44-7.31-.72-1.01-2.34-1.26-4.72-1.26-1.22,0-2.38.11-4.21.29l.36-5.76c2.16-.22,3.6-.36,5.58-.36,6.77,0,10.04,2.09,10.04,8.75v10.69h-5.9l-.5-2.63c-1.22,1.98-3.24,2.99-5.76,2.99-3.31,0-5.33-2.09-5.33-5.4Zm7.88.43c1.58,0,3.02-1.55,2.99-3.49v-.14c-3.71.4-4.36,1.15-4.36,2.3,0,.94.54,1.33,1.37,1.33Z"/>
        <path class="cls-9" d="m460.37,176.04v-19.08h5.9l.79,3.89c1.26-2.63,3.46-4.25,6.19-4.25l.36,6.84c-2.88-.14-4.9.65-6.26,2.59v10.01h-6.98Z"/>
        <path class="cls-9" d="m487.73,176.04l-.54-2.77c-1.37,2.05-3.17,3.13-5.87,3.13-4.28,0-7.13-3.2-7.13-9.03,0-6.91,3.89-10.69,9.75-10.69.83,0,1.76.11,2.7.32v-8.31h6.98v27.36h-5.9Zm-3.71-5.83c1.19,0,1.98-.58,2.63-1.37v-6.26c-.61-.25-1.15-.32-1.8-.32-1.94,0-3.35,1.22-3.35,4.25,0,2.52,1.04,3.71,2.52,3.71Z"/>
        <path class="cls-9" d="m496.33,166.39c0-6.26,4.5-9.79,9.61-9.79,5.58,0,8.28,3.17,8.28,8.85,0,1.19-.07,2.2-.14,3.2h-10.44c.68,1.73,2.34,2.2,5.29,2.2,1.33,0,2.92-.14,4.07-.29l-.29,5.47c-1.37.18-3.17.32-5.54.32-7.31,0-10.83-3.13-10.83-9.97Zm6.98-1.44l4.32-.29c0-2.05-.58-2.95-1.84-2.95-1.33,0-2.23.94-2.48,3.24Z"/>
        <path class="cls-9" d="m517.11,176.04v-19.08h5.9l.5,2.52c1.73-1.94,3.74-2.88,6.26-2.88,2.3,0,3.89.72,4.86,2.02,1.08,1.44,1.33,2.99,1.33,7.09v10.33h-6.98v-8.57c0-2.05-.04-2.81-.54-3.49-.47-.61-1.15-.86-2.23-.86-.86,0-1.66.25-2.12.54v12.38h-6.98Zm2.27-22.14c.9-5.08,2.34-6.41,4.9-6.41,1.26,0,2.09.25,3.2,1.15.86.72,1.19,1.01,1.69,1.01.68,0,1.12-.32,1.62-2.16l3.78,1.08c-.9,5.08-2.34,6.41-4.9,6.41-1.26,0-2.09-.22-3.2-1.15-.86-.72-1.19-1.01-1.76-1.01-.61,0-1.04.32-1.55,2.16l-3.78-1.08Z"/>
        <path class="cls-9" d="m538.67,171c0-4.1,2.88-6.41,10.44-7.31-.72-1.01-2.34-1.26-4.72-1.26-1.22,0-2.38.11-4.21.29l.36-5.76c2.16-.22,3.6-.36,5.58-.36,6.77,0,10.04,2.09,10.04,8.75v10.69h-5.9l-.5-2.63c-1.22,1.98-3.24,2.99-5.76,2.99-3.31,0-5.33-2.09-5.33-5.4Zm7.88.43c1.58,0,3.02-1.55,2.99-3.49v-.14c-3.71.4-4.36,1.15-4.36,2.3,0,.94.54,1.33,1.37,1.33Z"/>
      </g>
    </g>
    <g>
      <g>
        <path class="cls-3" d="m192.26,236.55c0-8.31,5.58-13.07,13.43-13.07,1.98,0,3.71.14,5.18.36l.36,6.12c-1.87-.25-3.13-.36-4.39-.36-4.61,0-7.2,1.94-7.2,6.7s2.81,6.98,7.16,6.98c1.84,0,3.1-.14,4.61-.36l-.36,6.12c-1.12.18-2.84.36-4.86.36-8.35,0-13.93-4.54-13.93-12.85Z"/>
        <path class="cls-3" d="m212.5,239.86c0-6.37,4.21-10.26,10.29-10.26s9.93,3.24,9.93,9.97c0,6.08-4.21,9.83-10.29,9.83s-9.94-3.1-9.94-9.54Zm12.92-.25c0-3.13-.76-4.61-2.63-4.61s-2.99,1.48-2.99,4.61c0,2.88.76,4.39,2.63,4.39s2.99-1.51,2.99-4.39Z"/>
        <path class="cls-3" d="m240.04,249.04l-6.77-19.08h7.24l3.42,11.23,2.99-11.23h7.09l-6.77,19.08h-7.2Z"/>
        <path class="cls-3" d="m254.54,244c0-4.1,2.88-6.41,10.44-7.31-.72-1.01-2.34-1.26-4.72-1.26-1.22,0-2.38.11-4.21.29l.36-5.76c2.16-.22,3.6-.36,5.58-.36,6.77,0,10.04,2.09,10.04,8.75v10.69h-5.9l-.5-2.63c-1.22,1.98-3.24,2.99-5.76,2.99-3.31,0-5.33-2.09-5.33-5.4Zm7.88.43c1.58,0,3.02-1.55,2.99-3.49v-.14c-3.71.4-4.36,1.15-4.36,2.3,0,.94.54,1.33,1.37,1.33Z"/>
        <path class="cls-3" d="m276,249.04v-19.08h5.9l.79,3.89c1.26-2.63,3.46-4.25,6.19-4.25l.36,6.84c-2.88-.14-4.9.65-6.26,2.59v10.01h-6.98Z"/>
        <path class="cls-3" d="m291.59,249.04v-19.08h5.9l.79,3.89c1.26-2.63,3.46-4.25,6.19-4.25l.36,6.84c-2.88-.14-4.9.65-6.26,2.59v10.01h-6.98Z"/>
        <path class="cls-3" d="m314.16,229.96v8.57c0,2.05.04,2.81.54,3.49.47.61,1.15.86,2.05.86s1.66-.25,2.09-.5v-12.42h6.98v19.08h-5.9l-.5-2.56c-1.55,1.91-3.2,2.92-6.12,2.92-2.23,0-3.82-.72-4.79-2.02-1.08-1.44-1.33-2.99-1.33-7.09v-10.33h6.98Z"/>
        <path class="cls-3" d="m335.07,248.5l-5.29.54v-27.36h6.98v10.33c1.3-1.58,2.99-2.41,5.33-2.41,4.28,0,7.13,3.2,7.13,9.03,0,6.91-3.89,10.69-9.75,10.69-1.37,0-2.95-.29-4.39-.83Zm1.69-5.08c.61.25,1.15.32,1.8.32,1.94,0,3.35-1.22,3.35-4.25,0-2.52-1.04-3.71-2.52-3.71-1.19,0-1.98.58-2.63,1.37v6.26Z"/>
        <path class="cls-3" d="m351.42,224.45c0-2.16,1.51-3.49,4-3.49s3.96,1.33,3.96,3.49-1.51,3.49-3.96,3.49-4-1.33-4-3.49Zm.5,5.51h6.98v19.08h-6.98v-19.08Z"/>
        <path class="cls-3" d="m361.61,244c0-4.1,2.88-6.41,10.44-7.31-.72-1.01-2.34-1.26-4.72-1.26-1.22,0-2.38.11-4.21.29l.36-5.76c2.16-.22,3.6-.36,5.58-.36,6.77,0,10.04,2.09,10.04,8.75v10.69h-5.9l-.5-2.63c-1.22,1.98-3.24,2.99-5.76,2.99-3.31,0-5.33-2.09-5.33-5.4Zm7.88.43c1.58,0,3.02-1.55,2.99-3.49v-.14c-3.71.4-4.36,1.15-4.36,2.3,0,.94.54,1.33,1.37,1.33Z"/>
        <path class="cls-3" d="m382.52,249.04l-.25-5.15c1.48.25,2.77.4,4.28.4,1.87,0,3.28-.25,3.28-1.04,0-.4-.18-.79-2.63-1.73-4-1.51-5.4-2.95-5.4-6.12s2.95-5.8,8.53-5.8c1.91,0,3.49.11,5.22.36l.25,5.11c-1.48-.25-2.77-.4-4.28-.4-1.8,0-2.45.25-2.45.83,0,.5.32.83,2.84,1.76,4.1,1.55,5.18,3.17,5.18,5.76,0,4.14-3.64,6.33-9.36,6.33-1.91,0-3.49-.11-5.22-.32Z"/>
      </g>
      <g>
        <path class="cls-9" d="m192.26,236.55c0-8.31,5.58-13.07,13.43-13.07,1.98,0,3.71.14,5.18.36l.36,6.12c-1.87-.25-3.13-.36-4.39-.36-4.61,0-7.2,1.94-7.2,6.7s2.81,6.98,7.16,6.98c1.84,0,3.1-.14,4.61-.36l-.36,6.12c-1.12.18-2.84.36-4.86.36-8.35,0-13.93-4.54-13.93-12.85Z"/>
        <path class="cls-9" d="m212.5,239.86c0-6.37,4.21-10.26,10.29-10.26s9.93,3.24,9.93,9.97c0,6.08-4.21,9.83-10.29,9.83s-9.94-3.1-9.94-9.54Zm12.92-.25c0-3.13-.76-4.61-2.63-4.61s-2.99,1.48-2.99,4.61c0,2.88.76,4.39,2.63,4.39s2.99-1.51,2.99-4.39Z"/>
        <path class="cls-9" d="m240.04,249.04l-6.77-19.08h7.24l3.42,11.23,2.99-11.23h7.09l-6.77,19.08h-7.2Z"/>
        <path class="cls-9" d="m254.54,244c0-4.1,2.88-6.41,10.44-7.31-.72-1.01-2.34-1.26-4.72-1.26-1.22,0-2.38.11-4.21.29l.36-5.76c2.16-.22,3.6-.36,5.58-.36,6.77,0,10.04,2.09,10.04,8.75v10.69h-5.9l-.5-2.63c-1.22,1.98-3.24,2.99-5.76,2.99-3.31,0-5.33-2.09-5.33-5.4Zm7.88.43c1.58,0,3.02-1.55,2.99-3.49v-.14c-3.71.4-4.36,1.15-4.36,2.3,0,.94.54,1.33,1.37,1.33Z"/>
        <path class="cls-9" d="m276,249.04v-19.08h5.9l.79,3.89c1.26-2.63,3.46-4.25,6.19-4.25l.36,6.84c-2.88-.14-4.9.65-6.26,2.59v10.01h-6.98Z"/>
        <path class="cls-9" d="m291.59,249.04v-19.08h5.9l.79,3.89c1.26-2.63,3.46-4.25,6.19-4.25l.36,6.84c-2.88-.14-4.9.65-6.26,2.59v10.01h-6.98Z"/>
        <path class="cls-9" d="m314.16,229.96v8.57c0,2.05.04,2.81.54,3.49.47.61,1.15.86,2.05.86s1.66-.25,2.09-.5v-12.42h6.98v19.08h-5.9l-.5-2.56c-1.55,1.91-3.2,2.92-6.12,2.92-2.23,0-3.82-.72-4.79-2.02-1.08-1.44-1.33-2.99-1.33-7.09v-10.33h6.98Z"/>
        <path class="cls-9" d="m335.07,248.5l-5.29.54v-27.36h6.98v10.33c1.3-1.58,2.99-2.41,5.33-2.41,4.28,0,7.13,3.2,7.13,9.03,0,6.91-3.89,10.69-9.75,10.69-1.37,0-2.95-.29-4.39-.83Zm1.69-5.08c.61.25,1.15.32,1.8.32,1.94,0,3.35-1.22,3.35-4.25,0-2.52-1.04-3.71-2.52-3.71-1.19,0-1.98.58-2.63,1.37v6.26Z"/>
        <path class="cls-9" d="m351.42,224.45c0-2.16,1.51-3.49,4-3.49s3.96,1.33,3.96,3.49-1.51,3.49-3.96,3.49-4-1.33-4-3.49Zm.5,5.51h6.98v19.08h-6.98v-19.08Z"/>
        <path class="cls-9" d="m361.61,244c0-4.1,2.88-6.41,10.44-7.31-.72-1.01-2.34-1.26-4.72-1.26-1.22,0-2.38.11-4.21.29l.36-5.76c2.16-.22,3.6-.36,5.58-.36,6.77,0,10.04,2.09,10.04,8.75v10.69h-5.9l-.5-2.63c-1.22,1.98-3.24,2.99-5.76,2.99-3.31,0-5.33-2.09-5.33-5.4Zm7.88.43c1.58,0,3.02-1.55,2.99-3.49v-.14c-3.71.4-4.36,1.15-4.36,2.3,0,.94.54,1.33,1.37,1.33Z"/>
        <path class="cls-9" d="m382.52,249.04l-.25-5.15c1.48.25,2.77.4,4.28.4,1.87,0,3.28-.25,3.28-1.04,0-.4-.18-.79-2.63-1.73-4-1.51-5.4-2.95-5.4-6.12s2.95-5.8,8.53-5.8c1.91,0,3.49.11,5.22.36l.25,5.11c-1.48-.25-2.77-.4-4.28-.4-1.8,0-2.45.25-2.45.83,0,.5.32.83,2.84,1.76,4.1,1.55,5.18,3.17,5.18,5.76,0,4.14-3.64,6.33-9.36,6.33-1.91,0-3.49-.11-5.22-.32Z"/>
      </g>
    </g>
    <circle class="cls-6" cx="172" cy="169" r="8"/>
    <circle class="cls-6" cx="169" cy="238" r="8"/>
    <circle class="cls-6" cx="146" cy="145" r="8"/>
  </g>
</svg>